<svg width="14" height="14" viewBox="0 0 14 14" fill="none" xmlns="http://www.w3.org/2000/svg">
<path d="M14.0001 13.1758L10.3473 9.52294C11.2961 8.36245 11.7627 6.88166 11.6504 5.38685C11.538 3.89204 10.8555 2.49758 9.74387 1.49191C8.63226 0.486236 7.17663 -0.0537076 5.67807 -0.0162391C4.17952 0.0212295 2.75269 0.633244 1.69272 1.69321C0.632756 2.75318 0.0207412 4.18001 -0.0167273 5.67856C-0.0541959 7.17712 0.485748 8.63275 1.49142 9.74436C2.49709 10.856 3.89155 11.5385 5.38636 11.6508C6.88117 11.7632 8.36196 11.2966 9.52245 10.3478L13.1753 14.0006L14.0001 13.1758ZM5.83345 10.5006C4.91047 10.5006 4.00822 10.2269 3.24079 9.71413C2.47336 9.20135 1.87522 8.47252 1.52201 7.61979C1.1688 6.76707 1.07639 5.82876 1.25645 4.92352C1.43652 4.01827 1.88097 3.18675 2.53362 2.53411C3.18626 1.88146 4.01778 1.437 4.92303 1.25694C5.82827 1.07688 6.76658 1.16929 7.61931 1.5225C8.47203 1.87571 9.20086 2.47385 9.71364 3.24128C10.2264 4.00871 10.5001 4.91096 10.5001 5.83394C10.4987 7.07119 10.0066 8.25737 9.13175 9.13224C8.25688 10.0071 7.0707 10.4992 5.83345 10.5006Z" fill="#374957"/>
</svg>
