<svg width="26" height="26" viewBox="0 0 26 26" fill="none" xmlns="http://www.w3.org/2000/svg">
<path d="M17.6377 12.8302C18.1664 12.8302 18.6832 12.6734 19.1227 12.3797C19.5623 12.086 19.9049 11.6685 20.1072 11.1801C20.3095 10.6917 20.3625 10.1542 20.2593 9.63569C20.1562 9.11718 19.9016 8.6409 19.5278 8.26707C19.154 7.89325 18.6777 7.63867 18.1592 7.53553C17.6407 7.43239 17.1032 7.48533 16.6148 7.68764C16.1264 7.88995 15.7089 8.23256 15.4152 8.67213C15.1215 9.1117 14.9647 9.6285 14.9647 10.1572C14.9636 10.5085 15.0321 10.8566 15.166 11.1813C15.3 11.5061 15.4968 11.8012 15.7452 12.0496C15.9937 12.298 16.2888 12.4949 16.6135 12.6289C16.9383 12.7628 17.2864 12.8312 17.6377 12.8302ZM9.6217 11.7612C10.2559 11.761 10.8758 11.5727 11.403 11.2203C11.9303 10.8678 12.3412 10.3669 12.5838 9.78097C12.8264 9.19501 12.8898 8.55027 12.766 7.92827C12.6423 7.30627 12.3368 6.73492 11.8884 6.28648C11.4399 5.83803 10.8686 5.53261 10.2466 5.40884C9.62459 5.28507 8.97985 5.34849 8.39389 5.5911C7.80793 5.8337 7.30705 6.2446 6.95459 6.77183C6.60212 7.29907 6.41389 7.91897 6.4137 8.55317C6.41184 8.97497 6.49356 9.39296 6.65412 9.78301C6.81468 10.1731 7.05091 10.5274 7.34917 10.8257C7.64743 11.124 8.00181 11.3602 8.39186 11.5207C8.78191 11.6813 9.1999 11.763 9.6217 11.7612ZM17.6377 14.9682C15.6817 14.9682 11.7577 15.9522 11.7577 17.9082V20.3132H23.5177V17.9082C23.5197 15.9512 19.5957 14.9682 17.6377 14.9682ZM9.6217 13.8992C7.1307 13.8992 2.1377 15.1462 2.1377 17.6412V20.3142H9.6217V17.9082C9.6511 17.1137 9.90465 16.3438 10.353 15.6873C10.8014 15.0308 11.4264 14.5146 12.1557 14.1982C11.3227 14.0165 10.4741 13.9163 9.6217 13.8992Z" fill="#FF901C"/>
</svg>
