<svg width="23" height="18" viewBox="0 0 23 18" fill="none" xmlns="http://www.w3.org/2000/svg">
<path d="M22.1536 11.215C22.1502 8.26546 20.9864 5.43569 18.9137 3.33717C16.8411 1.23866 14.0259 0.0399242 11.0766 0C8.12736 0.0399242 5.31222 1.23866 3.23953 3.33717C1.16684 5.43569 0.00304445 8.26546 -0.000362744 11.215C-0.0477555 13.0913 0.380909 14.9491 1.24564 16.615H8.03064C8.41013 17.0498 8.87831 17.3983 9.4037 17.6371C9.92909 17.8759 10.4995 17.9995 11.0766 17.9995C11.6538 17.9995 12.2242 17.8759 12.7496 17.6371C13.275 17.3983 13.7431 17.0498 14.1226 16.615H20.9076C21.7724 14.9491 22.201 13.0913 22.1536 11.215ZM19.3846 6.923V8.308L13.7076 13.154C13.7672 13.3818 13.8133 13.6128 13.8456 13.846C13.8456 14.3937 13.6832 14.929 13.379 15.3844C13.0747 15.8397 12.6423 16.1946 12.1363 16.4042C11.6303 16.6138 11.0736 16.6686 10.5364 16.5618C9.9993 16.455 9.50591 16.1912 9.11866 15.804C8.73141 15.4167 8.46768 14.9233 8.36084 14.3862C8.254 13.8491 8.30884 13.2923 8.51842 12.7863C8.72799 12.2804 9.0829 11.8479 9.53826 11.5437C9.99362 11.2394 10.529 11.077 11.0766 11.077C11.4619 11.0863 11.8403 11.1809 12.1846 11.354L17.9996 6.923H19.3846ZM13.8456 2.769H15.2306V4.154H13.8456V2.769ZM6.92264 2.769H8.30764V4.154H6.92264V2.769ZM2.76864 13.846H1.38464V12.462H2.76864V13.846ZM4.15364 8.308H2.76864V6.923H4.15364V8.308ZM20.7686 13.846H19.3846V12.462H20.7696L20.7686 13.846Z" fill="#7F8F98"/>
<path d="M12.4604 13.8469C12.4604 14.1209 12.3792 14.3887 12.2269 14.6165C12.0747 14.8443 11.8583 15.0218 11.6052 15.1266C11.3521 15.2314 11.0736 15.2587 10.8049 15.2052C10.5362 15.1517 10.2894 15.0197 10.0957 14.8259C9.90208 14.6321 9.77025 14.3852 9.71692 14.1165C9.66359 13.8478 9.69116 13.5693 9.79614 13.3162C9.90112 13.0631 10.0788 12.8469 10.3067 12.6948C10.5346 12.5428 10.8025 12.4617 11.0764 12.4619C11.4436 12.4622 11.7956 12.6082 12.0551 12.8679C12.3146 13.1276 12.4604 13.4798 12.4604 13.8469Z" fill="#7F8F98"/>
</svg>
