<svg width="22" height="22" viewBox="0 0 22 22" fill="none" xmlns="http://www.w3.org/2000/svg">
<g clip-path="url(#clip0_24_3163)">
<path d="M7.33333 19.25H3.12492C3.02556 19.2498 2.93034 19.2102 2.86008 19.1399C2.78982 19.0697 2.75024 18.9744 2.75 18.8751V3.12492C2.75024 3.02556 2.78982 2.93034 2.86008 2.86008C2.93034 2.78982 3.02556 2.75024 3.12492 2.75H7.33333C7.69801 2.75 8.04774 2.60513 8.3056 2.34727C8.56347 2.08941 8.70833 1.73967 8.70833 1.375C8.70833 1.01033 8.56347 0.660591 8.3056 0.402728C8.04774 0.144866 7.69801 0 7.33333 0L3.12492 0C2.29643 0.000970404 1.50216 0.330513 0.916339 0.916339C0.330513 1.50216 0.000970404 2.29644 0 3.12492L0 18.8751C0.000970404 19.7036 0.330513 20.4978 0.916339 21.0837C1.50216 21.6695 2.29643 21.999 3.12492 22H7.33333C7.69801 22 8.04774 21.8551 8.3056 21.5973C8.56347 21.3394 8.70833 20.9897 8.70833 20.625C8.70833 20.2603 8.56347 19.9106 8.3056 19.6527C8.04774 19.3949 7.69801 19.25 7.33333 19.25Z" fill="#7F8F98"/>
<path d="M20.7915 8.08231L17.233 4.52656C17.1053 4.3989 16.9537 4.29764 16.7868 4.22857C16.62 4.15951 16.4411 4.12398 16.2606 4.12402C16.08 4.12407 15.9012 4.15968 15.7344 4.22882C15.5675 4.29797 15.416 4.39929 15.2883 4.52701C15.1606 4.65474 15.0594 4.80635 14.9903 4.9732C14.9213 5.14006 14.8857 5.31888 14.8858 5.49946C14.8859 5.86417 15.0308 6.2139 15.2888 6.47172L18.4164 9.59847L5.95801 9.62414C5.59334 9.62414 5.2436 9.76901 4.98574 10.0269C4.72787 10.2847 4.58301 10.6345 4.58301 10.9991C4.58301 11.3638 4.72787 11.7135 4.98574 11.9714C5.2436 12.2293 5.59334 12.3741 5.95801 12.3741L18.4668 12.3512L15.2888 15.5293C15.046 15.7901 14.9139 16.1349 14.9204 16.4911C14.9268 16.8473 15.0713 17.1871 15.3233 17.4389C15.5754 17.6907 15.9153 17.8349 16.2716 17.841C16.6278 17.8471 16.9725 17.7147 17.233 17.4717L20.7888 13.916C21.1718 13.5329 21.4757 13.0782 21.683 12.5777C21.8903 12.0772 21.997 11.5408 21.997 10.9991C21.997 10.4574 21.8903 9.92103 21.683 9.42056C21.4757 8.92009 21.1718 8.46535 20.7888 8.08231H20.7915Z" fill="#7F8F98"/>
</g>
<defs>
<clipPath id="clip0_24_3163">
<rect width="22" height="22" fill="white"/>
</clipPath>
</defs>
</svg>
