<svg width="16" height="16" viewBox="0 0 16 16" fill="none" xmlns="http://www.w3.org/2000/svg">
<g clip-path="url(#clip0_24_3156)">
<path d="M8.00098 0C6.41873 0 4.87201 0.469192 3.55642 1.34824C2.24082 2.22729 1.21545 3.47672 0.609944 4.93853C0.00444285 6.40034 -0.153984 8.00887 0.154698 9.56072C0.46338 11.1126 1.22531 12.538 2.34413 13.6569C3.46295 14.7757 4.88841 15.5376 6.44026 15.8463C7.99211 16.155 9.60064 15.9965 11.0624 15.391C12.5243 14.7855 13.7737 13.7602 14.6527 12.4446C15.5318 11.129 16.001 9.58225 16.001 8C15.9987 5.87897 15.1551 3.84547 13.6553 2.34568C12.1555 0.845886 10.122 0.00229405 8.00098 0V0ZM8.00098 14.6667C6.68244 14.6667 5.39351 14.2757 4.29718 13.5431C3.20085 12.8106 2.34637 11.7694 1.84178 10.5512C1.3372 9.33305 1.20518 7.99261 1.46241 6.6994C1.71965 5.40619 2.35458 4.21831 3.28693 3.28596C4.21929 2.35361 5.40717 1.71867 6.70038 1.46143C7.99359 1.2042 9.33403 1.33622 10.5522 1.8408C11.7704 2.34539 12.8116 3.19987 13.5441 4.2962C14.2767 5.39253 14.6676 6.68146 14.6676 8C14.6657 9.76752 13.9627 11.4621 12.7129 12.7119C11.4631 13.9617 9.76849 14.6647 8.00098 14.6667Z" fill="white"/>
<path d="M8.0013 6.66699H7.33463C7.15782 6.66699 6.98825 6.73723 6.86323 6.86225C6.73821 6.98728 6.66797 7.15685 6.66797 7.33366C6.66797 7.51047 6.73821 7.68004 6.86323 7.80506C6.98825 7.93009 7.15782 8.00033 7.33463 8.00033H8.0013V12.0003C8.0013 12.1771 8.07154 12.3467 8.19656 12.4717C8.32159 12.5968 8.49115 12.667 8.66797 12.667C8.84478 12.667 9.01434 12.5968 9.13937 12.4717C9.26439 12.3467 9.33463 12.1771 9.33463 12.0003V8.00033C9.33463 7.6467 9.19415 7.30757 8.94411 7.05752C8.69406 6.80747 8.35492 6.66699 8.0013 6.66699Z" fill="#374957"/>
<path d="M8.00098 5.33301C8.55326 5.33301 9.00098 4.88529 9.00098 4.33301C9.00098 3.78072 8.55326 3.33301 8.00098 3.33301C7.44869 3.33301 7.00098 3.78072 7.00098 4.33301C7.00098 4.88529 7.44869 5.33301 8.00098 5.33301Z" fill="#374957"/>
</g>
<defs>
<clipPath id="clip0_24_3156">
<rect width="16" height="16" fill="white" transform="translate(0.000976562)"/>
</clipPath>
</defs>
</svg>
