<svg width="25" height="25" viewBox="0 0 25 25" fill="none" xmlns="http://www.w3.org/2000/svg">
<path d="M9.54132 25.0001C10.1734 24.9984 10.779 24.7623 11.2259 24.3434C11.6729 23.9245 11.9248 23.3568 11.9266 22.7644H7.16068C7.16068 23.3566 7.41135 23.9246 7.85767 24.3438C8.30399 24.7629 8.9095 24.999 9.54132 25.0001ZM16.702 18.2886V12.6992C16.702 9.26752 14.7463 6.39364 11.335 5.63446V4.87748C11.335 4.43277 11.1465 4.00627 10.811 3.69181C10.4755 3.37735 10.0205 3.20068 9.54601 3.20068C9.07154 3.20068 8.6165 3.37735 8.281 3.69181C7.9455 4.00627 7.75702 4.43277 7.75702 4.87748V5.63776C4.33397 6.39804 2.39002 9.25982 2.39002 12.7025V18.2919L0 20.5287V21.6466H19.0838V20.5287L16.702 18.2886Z" fill="#9094AF"/>
<path d="M18.1311 12.0026C21.3727 12.0026 24.0005 9.53959 24.0005 6.5013C24.0005 3.46302 21.3727 1 18.1311 1C14.8895 1 12.2617 3.46302 12.2617 6.5013C12.2617 9.53959 14.8895 12.0026 18.1311 12.0026Z" fill="#FF1111"/>
<path d="M18.1311 11.4526C21.0485 11.4526 23.4136 9.23592 23.4136 6.50147C23.4136 3.76701 21.0485 1.55029 18.1311 1.55029C15.2137 1.55029 12.8486 3.76701 12.8486 6.50147C12.8486 9.23592 15.2137 11.4526 18.1311 11.4526Z" stroke="white" stroke-width="1.37564"/>
</svg>
