<svg width="18" height="19" viewBox="0 0 18 19" fill="none" xmlns="http://www.w3.org/2000/svg">
<path d="M1.20548 13.7539C1.82585 14.8306 3.20162 15.2005 4.27831 14.5801C4.27905 14.5797 4.27975 14.5793 4.28049 14.5789L4.61423 14.3861C5.24423 14.9251 5.96838 15.3431 6.75022 15.6191V16.0039C6.75022 17.2465 7.75759 18.2539 9.00022 18.2539C10.2429 18.2539 11.2502 17.2465 11.2502 16.0039V15.6192C12.0322 15.3427 12.7563 14.9242 13.3862 14.3846L13.7215 14.5781C14.7984 15.1995 16.1752 14.8301 16.7965 13.7531C17.4178 12.6762 17.0484 11.2994 15.9715 10.6781L15.6385 10.4861C15.7884 9.67047 15.7884 8.83432 15.6385 8.01862L15.9715 7.82663C17.0484 7.20532 17.4178 5.8286 16.7965 4.75162C16.1752 3.67468 14.7984 3.30529 13.7215 3.92661L13.3877 4.11937C12.7571 3.58102 12.0324 3.16379 11.2502 2.88866V2.50391C11.2502 1.26127 10.2429 0.253906 9.00022 0.253906C7.75759 0.253906 6.75022 1.26127 6.75022 2.50391V2.88866C5.96827 3.16509 5.24409 3.58359 4.61423 4.12317L4.27898 3.92893C3.202 3.30758 1.82529 3.67696 1.20397 4.75391C0.582653 5.83085 0.952005 7.2076 2.02898 7.82892L2.36198 8.02091C2.21208 8.83657 2.21208 9.67272 2.36198 10.4884L2.02898 10.6804C0.954993 11.3034 0.586837 12.6774 1.20548 13.7539ZM9.00022 6.25392C10.6571 6.25392 12.0002 7.59706 12.0002 9.25391C12.0002 10.9108 10.6571 12.2539 9.00022 12.2539C7.34338 12.2539 6.00023 10.9108 6.00023 9.25391C6.00023 7.59706 7.34338 6.25392 9.00022 6.25392Z" fill="#7F8F98"/>
</svg>
