<svg width="17" height="17" viewBox="0 0 17 17" fill="none" xmlns="http://www.w3.org/2000/svg">
<path d="M10.0145 8.75411L16.5955 2.26413C17.0041 1.86122 17.0041 1.20798 16.5955 0.80511C16.187 0.402203 15.5247 0.402203 15.1162 0.80511L8.53591 7.29577L1.95562 0.80511C1.54711 0.402203 0.884786 0.402203 0.476306 0.80511C0.0678264 1.20802 0.0677937 1.86125 0.476306 2.26413L7.05728 8.75411L0.476306 15.2441C0.0677937 15.647 0.0677937 16.3003 0.476306 16.7031C0.884819 17.106 1.54715 17.1061 1.95562 16.7031L8.53591 10.2125L15.1162 16.7031C15.5247 17.1061 16.187 17.1061 16.5955 16.7031C17.004 16.3002 17.004 15.647 16.5955 15.2441L10.0145 8.75411Z" fill="#969696"/>
</svg>
