<svg width="24" height="24" viewBox="0 0 24 24" fill="none" xmlns="http://www.w3.org/2000/svg">
<path d="M19.14,12.94C19.18,12.64 19.2,12.33 19.2,12C19.2,11.67 19.18,11.36 19.14,11.06L21.16,9.48C21.34,9.34 21.39,9.07 21.28,8.87L19.36,5.44C19.24,5.21 18.95,5.13 18.73,5.21L16.25,6.05C15.88,5.78 15.48,5.56 15.06,5.39L14.7,2.81C14.66,2.57 14.46,2.4 14.22,2.4H9.78C9.54,2.4 9.34,2.57 9.3,2.81L8.94,5.39C8.52,5.56 8.12,5.78 7.75,6.05L5.27,5.21C5.05,5.13 4.76,5.21 4.64,5.44L2.72,8.87C2.61,9.07 2.66,9.34 2.84,9.48L4.86,11.06C4.82,11.36 4.8,11.67 4.8,12C4.8,12.33 4.82,12.64 4.86,12.94L2.84,14.52C2.66,14.66 2.61,14.93 2.72,15.13L4.64,18.56C4.76,18.79 5.05,18.87 5.27,18.79L7.75,17.95C8.12,18.22 8.52,18.44 8.94,18.61L9.3,21.19C9.34,21.43 9.54,21.6 9.78,21.6H14.22C14.46,21.6 14.66,21.43 14.7,21.19L15.06,18.61C15.48,18.44 15.88,18.22 16.25,17.95L18.73,18.79C18.95,18.87 19.24,18.79 19.36,18.56L21.28,15.13C21.39,14.93 21.34,14.66 21.16,14.52L19.14,12.94ZM12,15.6C10.02,15.6 8.4,13.98 8.4,12C8.4,10.02 10.02,8.4 12,8.4C13.98,8.4 15.6,10.02 15.6,12C15.6,13.98 13.98,15.6 12,15.6Z" fill="currentColor"/>
</svg>
